<?xml version="1.0" encoding="UTF-8"?> <svg xmlns="http://www.w3.org/2000/svg" width="112" height="158" viewBox="0 0 112 158" fill="none"> <path d="M108.62 106.091C108.62 139.086 82.9098 156.225 53.9863 156.225C30.2048 156.225 9.63698 146.156 0.424316 124.088L29.9905 106.948C33.4185 116.804 39.846 122.803 53.9863 122.803C68.1267 122.803 74.3399 115.304 74.3399 106.091C74.3399 96.8787 68.1267 89.38 55.0576 89.38H8.13732L14.3504 3.25232H101.121V35.3895H46.4876L44.9879 55.9573H57.2C85.0523 55.9573 108.62 73.0972 108.62 106.091Z" fill="#1D1D1B"></path> <path d="M108.703 106.188C108.703 139.182 82.9931 156.322 54.0696 156.322C30.288 156.322 9.72023 146.252 0.507568 124.185L30.0738 107.045C33.5017 116.9 39.9292 122.899 54.0696 122.899C68.2099 122.899 74.4231 115.4 74.4231 106.188C74.4231 96.9751 68.2099 89.4764 55.1408 89.4764H8.22058L14.4337 3.34875H101.204V35.486H46.5709L45.0711 56.0538H57.2833C85.1355 56.0538 108.703 73.1936 108.703 106.188Z" fill="url(#paint0_linear)"></path> <path d="M8.49353 58.4587C8.47746 58.4587 8.46147 58.4587 8.4454 58.456C8.07583 58.4292 7.79997 58.1079 7.82675 57.741L11.9001 1.29199C11.9242 0.941161 12.2162 0.670654 12.567 0.670654H103.215C103.585 0.670654 103.885 0.970602 103.885 1.34018V14.0263C103.885 14.3959 103.585 14.6959 103.215 14.6959C102.846 14.6959 102.546 14.3959 102.546 14.0263V2.0097H13.1909L9.16305 57.8374C9.13359 58.1882 8.84168 58.4587 8.49353 58.4587Z" fill="#2525C1"></path> <path d="M70.6043 157.074C70.3017 157.074 70.0285 156.868 69.9535 156.563C69.8651 156.204 70.0873 155.842 70.4462 155.754C79.0911 153.66 86.9192 149.822 93.0922 144.656C104.18 135.371 110.042 122.069 110.042 106.19C110.042 90.2665 104.608 76.9751 94.3322 67.7544C94.0563 67.508 94.0349 67.0848 94.2813 66.809C94.5277 66.5332 94.9509 66.5117 95.2267 66.7581C105.795 76.2413 111.381 89.8755 111.381 106.19C111.381 122.479 105.355 136.137 93.9519 145.684C87.6235 150.982 79.6054 154.916 70.7623 157.058C70.7087 157.066 70.6579 157.074 70.6043 157.074Z" fill="#2525C1"></path> <path d="M54.0693 121.56C41.7822 121.56 34.9852 117.088 31.3376 106.606L30.8046 105.074L13.4988 115.106C13.1801 115.291 12.7703 115.184 12.5828 114.862C12.398 114.544 12.5052 114.134 12.8265 113.946L30.8341 103.507C31.0082 103.405 31.2143 103.389 31.4018 103.459C31.5893 103.529 31.7366 103.678 31.8009 103.866L32.6016 106.164C36.0296 116.016 42.4491 120.221 54.0667 120.221C59.996 120.221 64.7255 118.767 67.7437 116.019C70.3602 113.636 71.7421 110.234 71.7421 106.188C71.7421 102.16 70.3923 98.7454 67.8347 96.3191C64.9664 93.5954 60.5744 92.1546 55.1379 92.1546H35.5155C35.1459 92.1546 34.8459 91.8547 34.8459 91.4851C34.8459 91.1155 35.1459 90.8156 35.5155 90.8156H55.1379C60.9253 90.8156 65.636 92.3823 68.7587 95.3496C71.5868 98.0357 73.0812 101.782 73.0812 106.188C73.0812 110.623 71.5465 114.364 68.6435 117.007C65.3789 119.985 60.3387 121.56 54.0693 121.56Z" fill="#2525C1"></path> <defs> <linearGradient id="paint0_linear" x1="0.507809" y1="79.8349" x2="108.703" y2="79.8349" gradientUnits="userSpaceOnUse"> <stop stop-color="#4F92CE"></stop> <stop offset="1" stop-color="#5A3B8E"></stop> </linearGradient> </defs> </svg> 