<?xml version="1.0" encoding="UTF-8"?> <svg xmlns="http://www.w3.org/2000/svg" width="105" height="153" viewBox="0 0 105 153" fill="none"> <path d="M72.3559 0.0571289V150.031H38.0762V36.265L11.5095 43.5495L3.15381 14.1975L42.3612 0.0571289H72.3559Z" fill="url(#paint0_linear)"></path> <path d="M74.3243 152.634H36.0274C35.6579 152.634 35.3579 152.334 35.3579 151.964C35.3579 151.595 35.6579 151.295 36.0274 151.295H73.6547V71.4767C73.6547 71.1071 73.9547 70.8071 74.3243 70.8071C74.6938 70.8071 74.9938 71.1071 74.9938 71.4767V151.964C74.9938 152.334 74.6938 152.634 74.3243 152.634Z" fill="#2525C1"></path> <path d="M36.0274 54.6474C35.6579 54.6474 35.3579 54.3475 35.3579 53.9779V39.701L10.2588 46.5837C9.90525 46.6801 9.53835 46.4739 9.43658 46.1204L0.0257399 13.0512C-0.0706717 12.7138 0.111439 12.3576 0.443523 12.2371L9.02148 9.14385C9.36963 9.01798 9.7526 9.19741 9.87847 9.54556C10.0043 9.89371 9.82491 10.2767 9.47676 10.4026L1.48263 13.2869L10.5426 45.1161L35.848 38.1771C36.0489 38.1209 36.2658 38.1637 36.4318 38.2896C36.5979 38.4155 36.6943 38.6137 36.6943 38.8226V53.9779C36.697 54.3475 36.397 54.6474 36.0274 54.6474Z" fill="#2525C1"></path> <defs> <linearGradient id="paint0_linear" x1="-42.5735" y1="10.3101" x2="105.382" y2="108.253" gradientUnits="userSpaceOnUse"> <stop stop-color="#4F92CE"></stop> <stop offset="1" stop-color="#5A3B8E"></stop> </linearGradient> </defs> </svg> 