<?xml version="1.0" encoding="UTF-8"?> <svg xmlns="http://www.w3.org/2000/svg" width="113" height="159" viewBox="0 0 113 159" fill="none"> <path d="M112.311 103.306C112.311 134.372 89.601 156.225 56.6068 156.225C23.3984 156.225 0.902344 134.372 0.902344 103.306C0.902344 91.7367 4.11601 81.2386 9.68646 72.8829L55.5356 3.25232H94.9571L62.3914 50.6011C92.1719 52.9579 112.311 74.1684 112.311 103.306ZM78.0316 103.306C78.0316 90.237 67.962 82.5241 56.6068 82.5241C45.0374 82.5241 35.182 90.0227 35.182 103.306C35.182 116.589 45.0374 124.088 56.6068 124.088C67.962 124.088 78.0316 116.375 78.0316 103.306Z" fill="#1D1D1B"></path> <path d="M112.397 103.403C112.397 134.469 89.6865 156.322 56.6923 156.322C23.4838 156.322 0.987793 134.469 0.987793 103.403C0.987793 91.8332 4.20146 81.335 9.77191 72.9794L55.621 3.34875H95.0427L62.477 50.6976C92.2575 53.0543 112.397 74.2648 112.397 103.403ZM78.1171 103.403C78.1171 90.3334 68.0474 82.6205 56.6923 82.6205C45.1229 82.6205 35.2675 90.1192 35.2675 103.403C35.2675 116.686 45.1229 124.185 56.6923 124.185C68.0474 124.185 78.1171 116.472 78.1171 103.403Z" fill="url(#paint0_linear)"></path> <path d="M56.6923 159C48.2215 159 40.2648 157.631 33.042 154.929C25.9638 152.283 19.7399 148.419 14.5363 143.446C14.2685 143.191 14.2604 142.765 14.5149 142.5C14.7693 142.232 15.1952 142.222 15.4603 142.479C20.5299 147.326 26.6012 151.094 33.5081 153.676C40.5809 156.319 48.3821 157.661 56.6896 157.661C68.192 157.661 78.9742 154.977 87.8681 149.9C96.5666 144.932 103.508 137.663 107.94 128.874C108.106 128.545 108.511 128.411 108.84 128.577C109.17 128.743 109.304 129.147 109.138 129.477C104.585 138.499 97.4611 145.963 88.5323 151.062C79.4375 156.255 68.4278 159 56.6923 159Z" fill="#2525C1"></path> <path d="M100.062 66.2948C99.8848 66.2948 99.708 66.2252 99.5768 66.0859C91.0685 57.1089 79.4456 51.4474 65.964 49.712C65.7337 49.6826 65.5329 49.5353 65.4391 49.321C65.3427 49.1095 65.3667 48.8604 65.498 48.6675L97.5897 2.00702H74.6277C74.2581 2.00702 73.9582 1.70707 73.9582 1.33749C73.9582 0.967916 74.2581 0.667969 74.6277 0.667969H98.8645C99.1136 0.667969 99.3412 0.804543 99.4564 1.02682C99.5715 1.24643 99.5553 1.51426 99.4161 1.7178L67.22 48.531C80.5516 50.4645 92.0594 56.2011 100.552 65.162C100.806 65.4298 100.795 65.8529 100.528 66.1073C100.394 66.2332 100.228 66.2948 100.062 66.2948Z" fill="#2525C1"></path> <path d="M56.6924 122.846C51.1782 122.846 46.1514 121.046 42.5387 117.781C38.6581 114.273 36.6067 109.3 36.6067 103.403C36.6067 103.033 36.9066 102.733 37.2762 102.733C37.6458 102.733 37.9457 103.033 37.9457 103.403C37.9457 108.911 39.8444 113.539 43.4385 116.788C46.8048 119.83 51.5103 121.507 56.6924 121.507C61.7674 121.507 66.4461 119.803 69.866 116.707C73.5109 113.408 75.4391 108.807 75.4391 103.403C75.4391 97.9955 73.5109 93.3945 69.866 90.0951C69.5928 89.846 69.5714 89.4229 69.8177 89.1497C70.0641 88.8766 70.49 88.8552 70.7632 89.1015C74.6973 92.6607 76.7754 97.6045 76.7754 103.4C76.7754 109.195 74.6973 114.139 70.7632 117.698C67.0969 121.019 62.0995 122.846 56.6924 122.846Z" fill="#2525C1"></path> <defs> <linearGradient id="paint0_linear" x1="0.986481" y1="79.8349" x2="112.396" y2="79.8349" gradientUnits="userSpaceOnUse"> <stop stop-color="#4F92CE"></stop> <stop offset="1" stop-color="#5A3B8E"></stop> </linearGradient> </defs> </svg> 