<?xml version="1.0" encoding="UTF-8"?> <svg xmlns="http://www.w3.org/2000/svg" width="110" height="157" viewBox="0 0 110 157" fill="none"> <path d="M4.85028 129.373L55.1986 77.0967C63.9827 68.0983 70.4102 59.3141 70.4102 50.53C70.4102 41.1031 64.4112 34.6756 54.3416 34.6756C43.8434 34.6756 36.3448 41.5315 32.2741 50.9585L3.35059 34.0328C12.9917 11.7511 33.131 1.25293 53.9131 1.25293C80.6941 1.25293 104.69 18.8212 104.69 49.0302C104.69 67.027 95.0487 82.4529 81.3368 96.1648L56.4841 121.232H106.832V154.226H4.85028V129.373Z" fill="#1D1D1B"></path> <path d="M4.93336 129.47L55.2816 77.1931C64.0658 68.1947 70.4933 59.4106 70.4933 50.6264C70.4933 41.1995 64.4943 34.772 54.4247 34.772C43.9265 34.772 36.4278 41.628 32.3571 51.0549L3.43359 34.1293C13.0748 11.8475 33.2141 1.34937 53.9961 1.34937C80.7771 1.34937 104.773 18.9177 104.773 49.1267C104.773 67.1235 95.1318 82.5494 81.4199 96.2612L56.5671 121.328H106.915V154.322H4.93336V129.47Z" fill="url(#paint0_linear)"></path> <path d="M33.2998 54.6034C33.1819 54.6034 33.0641 54.5712 32.9623 54.5123L0.543911 35.5406C0.251998 35.3692 0.134219 35.0077 0.268124 34.6971L0.975114 33.0634C4.67893 24.5015 10.0244 17.2787 16.8589 11.5958C23.6372 5.96104 31.559 2.10457 40.4048 0.133483C40.769 0.0558184 41.1225 0.280785 41.2028 0.642329C41.2832 1.00387 41.0556 1.36005 40.694 1.4404C32.0572 3.36327 24.3255 7.12601 17.7132 12.6241C11.0421 18.1705 5.8225 25.2246 2.2017 33.5937L1.73036 34.681L32.9838 52.9697L33.5837 51.5798C39.3978 38.1143 49.1354 36.1057 54.422 36.1057C54.7916 36.1057 55.0915 36.4057 55.0915 36.7752C55.0915 37.1448 54.7916 37.4448 54.422 37.4448C49.4648 37.4448 40.3245 39.3516 34.8129 52.11L33.9131 54.1936C33.8381 54.3704 33.6881 54.5043 33.506 54.5632C33.4417 54.5926 33.3721 54.6034 33.2998 54.6034Z" fill="#2525C1"></path> <path d="M108.924 157.001H10.2547C9.88515 157.001 9.58521 156.701 9.58521 156.331C9.58521 155.961 9.88515 155.661 10.2547 155.661H108.254V119.989H61.3877C61.1173 119.989 60.8735 119.826 60.7691 119.577C60.6646 119.328 60.7209 119.038 60.911 118.848L82.3653 97.2093C82.625 96.9468 83.0509 96.9441 83.3133 97.2039C83.5758 97.4637 83.5785 97.8868 83.3187 98.152L62.9973 118.65H108.927C109.296 118.65 109.596 118.95 109.596 119.32V156.331C109.594 156.701 109.294 157.001 108.924 157.001Z" fill="#2525C1"></path> <path d="M2.92465 134.076C2.55507 134.076 2.25513 133.776 2.25513 133.407V128.658C2.25513 128.484 2.32207 128.318 2.44258 128.195L53.3533 75.3346C63.356 65.0882 67.815 57.469 67.815 50.6264C67.815 50.2569 68.115 49.9569 68.4845 49.9569C68.8541 49.9569 69.1541 50.2569 69.1541 50.6264C69.1541 57.8466 64.5772 65.755 54.3147 76.2666L3.59418 128.929V133.407C3.59418 133.776 3.29423 134.076 2.92465 134.076Z" fill="#2525C1"></path> <defs> <linearGradient id="paint0_linear" x1="3.43284" y1="77.8354" x2="106.915" y2="77.8354" gradientUnits="userSpaceOnUse"> <stop stop-color="#4F92CE"></stop> <stop offset="1" stop-color="#5A3B8E"></stop> </linearGradient> </defs> </svg> 