<?xml version="1.0" encoding="UTF-8"?> <svg xmlns="http://www.w3.org/2000/svg" width="124" height="156" viewBox="0 0 124 156" fill="none"> <path d="M120.477 129.23H105.479V153.226H70.7712V129.23H2.64038V97.5214L50.4177 3.25232H87.2683L39.4911 97.5214H70.7712V65.3842H105.479V97.5214H120.477V129.23V129.23Z" fill="#1D1D1B"></path> <path d="M120.562 129.327H105.565V153.322H70.857V129.327H2.72607V97.6179L50.5035 3.34875H87.354L39.5768 97.6179H70.857V65.4807H105.565V97.6179H120.562V129.327V129.327Z" fill="url(#paint0_linear)"></path> <path d="M0.714935 114.908C0.345357 114.908 0.0454102 114.608 0.0454102 114.238V97.1385C0.0454102 97.034 0.0695183 96.9296 0.117724 96.8359L0.334666 96.4074L48.669 1.03755C48.7842 0.812592 49.0145 0.670654 49.2662 0.670654H70.8356C71.2052 0.670654 71.5052 0.970601 71.5052 1.34018C71.5052 1.70976 71.2052 2.0097 70.8356 2.0097H49.6787L1.38446 97.2992V114.238C1.38446 114.608 1.08719 114.908 0.714935 114.908Z" fill="#2525C1"></path> <path d="M57.6112 96.2789H42.8442C42.6112 96.2789 42.3943 96.1584 42.2738 95.9602C42.1506 95.762 42.1426 95.5156 42.247 95.3067L80.6349 19.5647C80.8009 19.2353 81.2053 19.1041 81.5347 19.2701C81.8641 19.4362 81.9953 19.8406 81.8293 20.17L43.9342 94.9398H57.6112C57.9808 94.9398 58.2807 95.2398 58.2807 95.6093C58.2807 95.9789 57.9808 96.2789 57.6112 96.2789Z" fill="#2525C1"></path> <path d="M107.574 156.001H68.8485C68.4789 156.001 68.179 155.701 68.179 155.331V131.335C68.179 130.966 68.4789 130.666 68.8485 130.666C69.2181 130.666 69.518 130.966 69.518 131.335V154.661H106.904V131.335C106.904 130.966 107.204 130.666 107.574 130.666H121.902V106.863C121.902 106.493 122.201 106.193 122.571 106.193C122.941 106.193 123.241 106.493 123.241 106.863V131.335C123.241 131.705 122.941 132.005 122.571 132.005H108.243V155.331C108.243 155.701 107.943 156.001 107.574 156.001Z" fill="#2525C1"></path> <defs> <linearGradient id="paint0_linear" x1="2.72471" y1="78.3351" x2="120.562" y2="78.3351" gradientUnits="userSpaceOnUse"> <stop stop-color="#4F92CE"></stop> <stop offset="1" stop-color="#5A3B8E"></stop> </linearGradient> </defs> </svg> 