<?xml version="1.0" encoding="UTF-8"?> <svg xmlns="http://www.w3.org/2000/svg" width="111" height="157" viewBox="0 0 111 157" fill="none"> <path d="M107.286 106.091C107.286 139.086 81.5766 156.225 52.6531 156.225C29.9428 156.225 9.37502 146.156 0.162354 124.088L29.7286 106.948C33.1566 116.804 39.584 122.803 52.6531 122.803C66.7935 122.803 73.0067 115.304 73.0067 106.091C73.0067 96.8787 66.7935 89.38 52.6531 89.38H45.583L32.5138 69.8835L59.7233 35.3895H4.87584V3.25232H101.287V31.1046L75.3634 64.0987C93.7887 70.5262 107.286 85.3093 107.286 106.091Z" fill="#1D1D1B"></path> <path d="M107.369 106.188C107.369 139.182 81.6596 156.322 52.7361 156.322C30.0258 156.322 9.45803 146.252 0.245361 124.185L29.8116 107.045C33.2395 116.9 39.667 122.899 52.7361 122.899C66.8765 122.899 73.0897 115.4 73.0897 106.188C73.0897 96.9751 66.8765 89.4764 52.7361 89.4764H45.666L32.5968 69.9799L59.8063 35.486H4.95884V3.34875H101.37V31.201L75.4464 64.1952C93.8718 70.6227 107.369 85.4057 107.369 106.188Z" fill="url(#paint0_linear)"></path> <path d="M2.95029 31.9723C2.58071 31.9723 2.28076 31.6723 2.28076 31.3028V1.33749C2.28076 0.967916 2.58071 0.667969 2.95029 0.667969H73.6789C74.0485 0.667969 74.3484 0.967916 74.3484 1.33749C74.3484 1.70707 74.0485 2.00702 73.6789 2.00702H3.61981V31.3028C3.61981 31.6723 3.31986 31.9723 2.95029 31.9723Z" fill="#2525C1"></path> <path d="M106.807 124.088C106.74 124.088 106.67 124.078 106.603 124.056C106.253 123.944 106.057 123.566 106.17 123.215C107.854 117.961 108.711 112.232 108.711 106.188C108.711 96.844 105.95 88.0464 100.728 80.7486C95.5108 73.4561 87.8166 67.6286 78.4754 63.898C78.2799 63.8203 78.1326 63.6543 78.0764 63.4508C78.0202 63.2472 78.0657 63.0303 78.1969 62.8642L83.3736 56.2734C83.6013 55.9842 84.0217 55.9333 84.3136 56.161C84.6029 56.3886 84.6538 56.809 84.4262 57.101L79.7957 62.9928C89.0003 66.8305 96.6008 72.6875 101.812 79.9719C107.198 87.4974 110.045 96.5655 110.045 106.191C110.045 112.372 109.169 118.239 107.442 123.625C107.353 123.906 107.088 124.088 106.807 124.088Z" fill="#2525C1"></path> <path d="M52.7363 121.56C46.7132 121.56 42.0426 120.264 38.4593 117.594C35.2268 115.186 32.8112 111.592 31.0785 106.606L30.5455 105.074L24.734 108.443C24.4153 108.628 24.0056 108.52 23.8182 108.199C23.6334 107.88 23.7405 107.471 24.0618 107.283L30.575 103.507C30.7491 103.405 30.9553 103.389 31.1428 103.459C31.3303 103.528 31.4775 103.678 31.5418 103.866L32.3426 106.164C33.9869 110.891 36.2499 114.276 39.2601 116.517C42.605 119.008 47.0132 120.218 52.739 120.218C58.6683 120.218 63.3978 118.764 66.4134 116.016C69.0299 113.633 70.4144 110.232 70.4144 106.185C70.4144 102.139 69.0299 98.74 66.4134 96.3539C63.3978 93.6035 58.6683 92.1519 52.739 92.1519H44.5976C44.3753 92.1519 44.1664 92.0394 44.0405 91.8546L29.56 70.2531C29.3993 70.0121 29.41 69.6934 29.5895 69.4657L35.0099 62.5937C35.2376 62.3045 35.6607 62.2536 35.95 62.4839C36.2392 62.7143 36.2901 63.1347 36.0597 63.424L30.9419 69.913L44.951 90.8129H52.7363C59.0057 90.8129 64.0459 92.3876 67.3132 95.3656C70.2162 98.0116 71.7508 101.753 71.7508 106.185C71.7508 110.617 70.2162 114.361 67.3132 117.005C64.0459 119.985 59.0057 121.56 52.7363 121.56Z" fill="#2525C1"></path> <defs> <linearGradient id="paint0_linear" x1="0.245495" y1="79.8349" x2="107.37" y2="79.8349" gradientUnits="userSpaceOnUse"> <stop stop-color="#4F92CE"></stop> <stop offset="1" stop-color="#5A3B8E"></stop> </linearGradient> </defs> </svg> 